<?xml version="1.0" encoding="UTF-8"?>
<svg width="172px" height="172px" viewBox="0 0 172 172" version="1.1" xmlns="http://www.w3.org/2000/svg" xmlns:xlink="http://www.w3.org/1999/xlink">
    <title>画板</title>
    <defs>
        <linearGradient x1="50.000135%" y1="100%" x2="50.000135%" y2="-0.000169%" id="linearGradient-1">
            <stop stop-color="#FFAA1A" offset="0%"></stop>
            <stop stop-color="#F4A828" offset="100%"></stop>
        </linearGradient>
        <linearGradient x1="50.000144%" y1="9e-06%" x2="50.000144%" y2="100%" id="linearGradient-2">
            <stop stop-color="#FFD146" offset="0%"></stop>
            <stop stop-color="#FBC644" offset="100%"></stop>
        </linearGradient>
        <linearGradient x1="49.999807%" y1="1.2e-05%" x2="49.999807%" y2="100.000799%" id="linearGradient-3">
            <stop stop-color="#FFFFFF" stop-opacity="0.4" offset="0%"></stop>
            <stop stop-color="#FFFFFF" stop-opacity="0" offset="100%"></stop>
        </linearGradient>
    </defs>
    <g id="画板" stroke="none" stroke-width="1" fill="none" fill-rule="evenodd">
        <g id="file" transform="translate(0.000000, -1.000000)" fill-rule="nonzero">
            <path d="M48.434,0.989 C13.101,0.989 0.178,13.912 0.178,49.243 L0.178,124.746 C0.178,160.077 13.101,173 48.433,173 L123.88,173 C159.212,173 172.159,160.077 172.159,124.746 L172.159,49.243 C172.159,13.912 159.235,0.989 123.904,0.989 L48.434,0.989 Z" id="路径" fill="url(#linearGradient-1)"></path>
            <path d="M0.178,65.01 L0.178,124.746 C0.178,160.077 13.101,173 48.433,173 L123.88,173 C159.212,173 172.159,160.077 172.159,124.746 L172.159,89.1 L104.722,89.1 C98.921,89.1 93.477,86.299 90.101,81.578 L83.634,72.532 C80.259,67.811 74.814,65.01 69.013,65.01 L0.178,65.01 Z" id="路径" fill="url(#linearGradient-2)"></path>
            <path d="M24.158,65.01 L24.158,127.45 C24.158,133.34 24.763,135.475 25.899,137.628 C27.036,139.782 28.705,141.471 30.829,142.623 C32.955,143.774 35.064,144.387 40.878,144.387 L131.524,144.387 C137.338,144.387 139.446,143.774 141.572,142.623 C143.697,141.471 145.365,139.782 146.502,137.628 C147.639,135.475 148.244,133.34 148.244,127.45 L148.244,89.1 L104.722,89.1 C98.921,89.1 93.477,86.299 90.101,81.578 L83.634,72.532 C80.259,67.811 74.814,65.01 69.013,65.01 L24.158,65.01 Z" id="路径" fill="url(#linearGradient-3)"></path>
            <path d="M125.6073,27 C131.4213,27 133.5293,27.613 135.6553,28.765 C137.7803,29.916 139.4483,31.606 140.5853,33.759 C141.7223,35.912 142.3273,38.048 142.3273,43.937 L142.3273,89.349 L104.722,89.35 L104.335814,89.34586 C98.680066,89.224563 93.401978,86.4440889 90.101,81.828 L83.634,72.782 L83.4059521,72.4701208 C80.0168242,67.9378943 74.6850889,65.26 69.013,65.26 L30.074,65.259 L30.074,43.937 C30.074,38.048 30.6793,35.912 31.8163,33.759 C32.9533,31.606 34.6213,29.916 36.7463,28.765 C38.8723,27.613 40.9803,27 46.7943,27 L125.6073,27 Z" id="路径" fill-opacity="0.4" fill="#FFFFFF"></path>
            <path d="M131.5236,36.0667 C137.3376,36.0667 139.4466,36.6797 141.5716,37.8317 C143.6976,38.9827 145.3656,40.6727 146.5016,42.8257 C147.6386,44.9787 148.2436,47.1147 148.2436,53.0037 L148.2436,89.35 L104.722,89.35 L104.335814,89.34586 C98.680066,89.224563 93.401978,86.4440889 90.101,81.828 L83.634,72.782 L83.4059521,72.4701208 C80.0168242,67.9378943 74.6850889,65.26 69.013,65.26 L24.157,65.2597 L24.157,53.0037 C24.157,47.1147 24.7626,44.9787 25.8996,42.8257 C27.0366,40.6727 28.7046,38.9827 30.8296,37.8317 C32.9556,36.6797 35.0636,36.0667 40.8776,36.0667 L131.5236,36.0667 Z" id="路径" fill="#FFFFFF"></path>
            <path d="M109.3516,70.3106 C109.3586,70.6906 109.3246,71.0626 109.2506,71.4266 C110.5186,70.2476 111.7226,68.8246 112.9036,67.1626 C114.0056,65.6136 116.9046,60.8836 117.2036,60.4466 C118.4786,58.5856 120.3086,57.0976 122.4246,56.2416 C122.8976,56.0506 123.4506,55.8976 124.0866,55.7816 C122.2776,52.6896 118.9366,50.6966 115.2196,50.6966 C110.0806,50.6966 105.8226,54.4736 105.0686,59.4056 C105.3296,61.7166 106.0626,63.6806 107.2646,65.3116 C108.5876,67.1076 109.3216,68.6816 109.3516,70.3106 M130.3836,59.4606 C130.3406,59.3906 130.2856,59.3266 130.2196,59.2706 C128.8116,58.0826 127.1466,57.4016 125.4456,57.2106 C124.4266,57.3126 123.6186,57.4876 123.0256,57.7276 C121.2036,58.4646 119.6226,59.7486 118.5246,61.3526 C118.2596,61.7406 115.3496,66.4866 114.2086,68.0916 C112.2946,70.7856 110.2996,72.9076 108.0646,74.4326 C108.6216,74.3616 109.2106,74.2946 109.8196,74.2376 C111.8806,74.0426 113.8276,73.9836 115.4946,74.1116 C116.3956,74.1806 117.3026,74.2926 119.3196,74.5706 C122.1716,74.9636 123.3116,75.0936 124.3856,75.0906995 C129.3366,75.0906995 133.3446,71.0786 133.3446,66.1226 C133.3446,63.4796 132.2016,61.1026 130.3836,59.4606 M103.5826,60.3576 C100.4606,61.1896 98.1606,64.0376 98.1606,67.4236 C98.1606,71.0596 100.8126,74.0746 104.2866,74.6396 C104.5556,74.5336 104.8216,74.4186 105.0836,74.2956 C108.5786,72.0316 108.4586,69.6326 105.9756,66.2626 C104.7396,64.5866 103.9426,62.6146 103.5826,60.3576" id="形状" fill="#F4A929"></path>
        </g>
    </g>
</svg>