<svg height="192" viewBox="0 0 192 192" width="192" xmlns="http://www.w3.org/2000/svg" xmlns:xlink="http://www.w3.org/1999/xlink"><linearGradient id="a" x1="50.000135%" x2="50.000135%" y1="100%" y2="-.000169%"><stop offset="0" stop-color="#ffaa1a"/><stop offset="1" stop-color="#f4a828"/></linearGradient><linearGradient id="b" x1="50.000144%" x2="50.000144%" y1=".000009%" y2="100%"><stop offset="0" stop-color="#ffd146"/><stop offset="1" stop-color="#fbc644"/></linearGradient><linearGradient id="c" x1="49.999807%" x2="49.999807%" y1=".000012%" y2="100.000799%"><stop offset="0" stop-color="#fff" stop-opacity=".4"/><stop offset="1" stop-color="#fff" stop-opacity="0"/></linearGradient><filter id="d" height="130.2%" width="119.3%" x="-9.7%" y="-15.1%"><feGaussianBlur in="SourceGraphic" stdDeviation="4"/></filter><g fill="none" fill-rule="evenodd"><path d="m58.434 9.989c-35.333 0-48.256 12.923-48.256 48.254v75.503c0 35.331 12.923 48.254 48.255 48.254h75.447c35.332 0 48.279-12.923 48.279-48.254v-75.503c0-35.331-12.924-48.254-48.255-48.254z" fill="url(#a)"/><path d="m10.178 74.01v59.736c0 35.331 12.923 48.254 48.255 48.254h75.447c35.332 0 48.279-12.923 48.279-48.254v-35.646h-67.437c-5.801 0-11.245-2.801-14.621-7.522l-6.467-9.046c-3.375-4.721-8.82-7.522-14.621-7.522z" fill="url(#b)"/><path d="m34.158 74.01v62.44c0 5.89.605 8.025 1.741 10.178 1.137 2.154 2.806 3.843 4.93 4.995 2.126 1.151 4.235 1.764 10.049 1.764h90.646c5.814 0 7.922-.613 10.048-1.764 2.125-1.152 3.793-2.841 4.93-4.995 1.137-2.153 1.742-4.288 1.742-10.178v-38.35h-43.522c-5.801 0-11.245-2.801-14.621-7.522l-6.467-9.046c-3.375-4.721-8.82-7.522-14.621-7.522z" fill="url(#c)" filter="url(#d)"/><path d="m135.6073 36c5.814 0 7.922.613 10.048 1.765 2.125 1.151 3.793 2.841 4.93 4.994s1.742 4.289 1.742 10.178l-.0003 45.412-37.605.001-.386186-.00414c-5.655748-.121297-10.933836-2.9017711-14.234814-7.51786l-6.467-9.046-.2280479-.3118792c-3.3891279-4.5322265-8.7208632-7.2101208-14.3929521-7.2101208l-38.939-.001.0003-21.322c0-5.889.605-8.025 1.742-10.178s2.805-3.843 4.93-4.994c2.126-1.152 4.234-1.765 10.048-1.765z" fill="#fff" fill-opacity=".4"/><path d="m141.5236 45.0667c5.814 0 7.923.613 10.048 1.765 2.126 1.151 3.794 2.841 4.93 4.994 1.137 2.153 1.742 4.289 1.742 10.178l-.0006 36.346-43.521.0003-.386186-.00414c-5.655748-.121297-10.933836-2.9017711-14.234814-7.51786l-6.467-9.046-.2280479-.3118792c-3.3891279-4.5322265-8.7208632-7.2101208-14.3929521-7.2101208l-44.856-.0003.0006-12.256c0-5.889.605-8.025 1.742-10.178s2.805-3.843 4.93-4.994c2.126-1.152 4.234-1.765 10.048-1.765z" fill="#fff"/><path d="m119.3516 79.3106c.007.38-.027.752-.101 1.116 1.268-1.179 2.472-2.602 3.653-4.264 1.102-1.549 4.001-6.279 4.3-6.716 1.275-1.861 3.105-3.349 5.221-4.205.473-.191 1.026-.344 1.662-.46-1.809-3.092-5.15-5.085-8.867-5.085-5.139 0-9.397 3.777-10.151 8.709.261 2.311.994 4.275 2.196 5.906 1.323 1.796 2.057 3.37 2.087 4.999m21.032-10.85c-.043-.07-.098-.134-.164-.19-1.408-1.188-3.073-1.869-4.774-2.06-1.019.102-1.827.277-2.42.517-1.822.737-3.403 2.021-4.501 3.625-.265.388-3.175 5.134-4.316 6.739-1.914 2.694-3.909 4.816-6.144 6.341.557-.071 1.146-.138 1.755-.195 2.061-.195 4.008-.254 5.675-.126.901.069 1.808.181 3.825.459 2.852.393 3.992.523 5.066.5200506 4.951 0 8.959-4.0120506 8.959-8.9680506 0-2.643-1.143-5.02-2.961-6.662m-26.801.897c-3.122.832-5.422 3.68-5.422 7.066 0 3.636 2.652 6.651 6.126 7.216.269-.106.535-.221.797-.344 3.495-2.264 3.375-4.663.892-8.033-1.236-1.676-2.033-3.648-2.393-5.905" fill="#f4a929"/></g></svg>