<?xml version="1.0" encoding="UTF-8"?>
<svg width="24px" height="24px" viewBox="0 0 24 24" version="1.1" xmlns="http://www.w3.org/2000/svg" xmlns:xlink="http://www.w3.org/1999/xlink">
    <title>clipboard</title>
    <g id="clipboard" stroke="none" stroke-width="1" fill="none" fill-rule="evenodd">
        <path d="M18.5713629,2.41913248 C19.0621958,2.50553593 19.4497973,2.64248561 19.8401893,2.84725897 C20.5262315,3.20711059 21.069375,3.7398209 21.4362744,4.41268494 C21.7038246,4.90335069 21.8574345,5.38888625 21.9348958,6.08658459 L21.9604482,6.358591 L21.9741891,6.55989351 L21.9848676,6.77279462 L21.9926307,6.99813927 L21.9976253,7.2367724 L21.9999983,7.48953895 L22.0002351,17.6914257 L22.0002008,17.7540739 L22.0002008,17.7540739 L21.9999601,17.8158748 L21.9977141,18.0548278 L21.9931064,18.2811153 L21.9860159,18.495451 L21.9838412,18.5472511 L21.9838412,18.5472511 L21.9815019,18.5983599 L21.9704607,18.7961058 L21.96727,18.8439257 L21.96727,18.8439257 L21.9639033,18.8911212 L21.9486394,19.073883 C21.8761563,19.8456244 21.7201234,20.3611223 21.4362744,20.8816787 C21.069375,21.5545427 20.5262315,22.087253 19.8401893,22.4471046 C19.3399137,22.7095155 18.8448689,22.8601747 18.133506,22.9361481 L17.8561723,22.9612096 L17.6509272,22.9746866 L17.4338564,22.98516 L17.2040983,22.9927739 L16.9607915,22.9976726 L16.7030745,23 L8.41254536,23.0002323 L8.34867019,23.0001986 L8.34867019,23.0001986 L8.28565894,22.9999625 L8.042026,22.9977597 L7.81130658,22.9932404 L7.59277309,22.9862862 L7.53995851,22.9841532 L7.53995851,22.9841532 L7.48784871,22.9818589 L7.2862299,22.9710298 L7.23747346,22.9679004 L7.23747346,22.9679004 L7.18935358,22.9645984 L7.00301237,22.9496277 C6.21615633,22.8785369 5.6905623,22.7255012 5.15981073,22.4471046 C4.47376855,22.087253 3.93062502,21.5545427 3.56372563,20.8816787 L3.54698102,20.8506981 L3.54698102,20.8506981 L3.53053722,20.8197189 L3.46772777,20.6955732 C3.25274093,20.2529369 3.12581226,19.7922589 3.05956271,19.1558147 L3.03750999,18.908601 L3.02451062,18.7112652 L3.0143953,18.502841 L3.00702866,18.2825486 L3.00227535,18.0496083 L3,17.8032404 L3.00003994,7.47848883 L3.00228589,7.23953581 L3.00689365,7.01324828 L3.0139841,6.79891259 L3.0161588,6.74711253 L3.0161588,6.74711253 L3.01849812,6.6960037 L3.02953929,6.49825778 L3.03273001,6.45043789 L3.03273001,6.45043789 L3.03609667,6.40324235 L3.05136057,6.22048056 C3.12384371,5.44873921 3.2798766,4.9332413 3.56372564,4.41268491 C3.93062502,3.73982089 4.47376855,3.20711058 5.15981074,2.84725897 C5.55087851,2.64213112 5.93875002,2.50529051 6.42945607,2.4190317 L6.43003098,4.00920573 L6.29524827,4.05005376 L6.29524827,4.05005376 L6.16796231,4.09631143 L6.07914034,4.13335414 C6.02066999,4.1590563 5.96350292,4.18679193 5.9065274,4.21667746 C5.55500432,4.40106284 5.27179816,4.65591671 5.0599361,4.97827005 L4.95996443,5.14505792 L4.91718144,5.22660572 L4.90695536,5.2471353 L4.90695536,5.2471353 L4.89691474,5.26774517 L4.8585828,5.35121993 L4.84049829,5.39374115 L4.84049829,5.39374115 L4.82312191,5.43690887 L4.79045501,5.5255556 C4.75915943,5.6159291 4.73193927,5.71185472 4.70844779,5.81667877 L4.67596374,5.98100696 L4.65728653,6.0992138 L4.64881267,6.1611925 L4.64881267,6.1611925 L4.64090247,6.22521198 L4.62673452,6.35974513 L4.62352976,6.39479915 L4.62352976,6.39479915 L4.6204575,6.4304447 L4.60946923,6.57917457 L4.60050444,6.73829847 L4.59348606,6.90856001 L4.58833706,7.0907028 L4.58498037,7.28547048 L4.58333895,7.49360667 L4.58333895,17.7999685 L4.58516909,18.0139806 L4.588747,18.2138083 L4.59418835,18.4002695 L4.60158215,18.574182 L4.61101746,18.7363636 L4.6225833,18.887632 L4.63636872,19.028805 L4.65246274,19.1607005 C4.68471502,19.3987553 4.72949899,19.5925937 4.78942069,19.7661522 L4.837241,19.8928926 L4.87500919,19.9800084 C4.90121474,20.0373556 4.92949358,20.0934246 4.95996442,20.1493056 C5.14796103,20.4940763 5.40780626,20.7718424 5.73647294,20.9796348 L5.90652739,21.0776861 L5.98967232,21.1196473 L6.03161749,21.1395247 L6.11672716,21.1771203 L6.2040944,21.2119 L6.29447741,21.2439394 C6.38662106,21.2746339 6.48442566,21.3013311 6.59130315,21.3243714 L6.75885053,21.3562314 L6.87937319,21.3745499 L6.94256616,21.382861 L6.94256616,21.382861 L7.00783993,21.3906192 L7.14500897,21.404515 L7.18074981,21.4076582 L7.18074981,21.4076582 L7.21709378,21.4106715 L7.36873789,21.4214487 L7.53097979,21.4302413 L7.70457769,21.4371248 L7.89028979,21.4421749 L8.08887429,21.4454671 L8.3010894,21.447077 L16.6981233,21.447077 L16.9163268,21.445282 L17.1200682,21.4417728 L17.3101813,21.436436 L17.4874999,21.4291842 L17.6528578,21.4199302 L17.8070888,21.4085865 L17.9510268,21.3950659 L18.0855055,21.379281 C18.3282226,21.3476483 18.5258574,21.3037245 18.7028151,21.2449539 L18.8320377,21.1980522 L18.9208597,21.1610095 C18.97933,21.1353073 19.0364971,21.1075717 19.0934726,21.0776861 C19.4449957,20.8933007 19.7282019,20.6384469 19.9400639,20.3160935 L20.0400356,20.1493057 L20.0828186,20.0677579 L20.0930446,20.0472283 L20.0930446,20.0472283 L20.1030853,20.0266184 L20.1414172,19.9431436 L20.1595017,19.9006224 L20.1595017,19.9006224 L20.1768781,19.8574546 L20.209545,19.7688078 C20.2408406,19.6784341 20.2680607,19.5825082 20.2915522,19.4776837 L20.3240363,19.3133548 L20.3427135,19.1951472 L20.3511873,19.1331681 L20.3511873,19.1331681 L20.3590975,19.0691482 L20.3732655,18.934614 L20.3764702,18.8995597 L20.3764702,18.8995597 L20.3795425,18.8639139 L20.3905308,18.7151827 L20.3994956,18.5560573 L20.4065139,18.385794 L20.4116629,18.2036493 L20.4150196,18.0088794 L20.4166611,17.8007407 L20.4166611,7.49439506 L20.4148309,7.280383 L20.411253,7.08055527 L20.4058117,6.89409406 L20.3984178,6.72018158 L20.3889825,6.55800004 L20.3774167,6.40673164 L20.3636313,6.26555858 L20.3475373,6.13366307 C20.315285,5.89560831 20.270501,5.70176985 20.2105793,5.52821135 L20.162759,5.40147095 L20.1249908,5.31435516 C20.0987853,5.25700796 20.0705064,5.20093902 20.0400356,5.14505793 C19.852039,4.80028725 19.5921937,4.52252119 19.2635271,4.31472878 L19.0934726,4.21667746 L19.0103277,4.17471629 L18.9683825,4.15483889 L18.8832729,4.11724327 L18.8399189,4.09950614 L18.8399189,4.09950614 L18.7959057,4.08246354 L18.7055229,4.05042415 C18.6617064,4.0358282 18.6166099,4.0221361 18.5698665,4.00931127 L18.5713629,2.41913248 Z M17.0014296,14.9766182 C17.430267,14.9766182 17.7779084,15.3242595 17.7779084,15.7530969 C17.7779084,16.1819343 17.430267,16.5295757 17.0014296,16.5295757 L7.99857037,16.5295757 C7.56973298,16.5295757 7.22209159,16.1819343 7.22209159,15.7530969 C7.22209159,15.3242595 7.56973298,14.9766182 7.99857037,14.9766182 L17.0014296,14.9766182 Z M17.0014296,10.5765717 C17.430267,10.5765717 17.7779084,10.9242131 17.7779084,11.3530505 C17.7779084,11.7818879 17.430267,12.1295293 17.0014296,12.1295293 L7.99857037,12.1295293 C7.56973298,12.1295293 7.22209159,11.7818879 7.22209159,11.3530505 C7.22209159,10.9242131 7.56973298,10.5765717 7.99857037,10.5765717 L17.0014296,10.5765717 Z M15.2822341,1 C15.9007663,1 16.3093731,1.07277638 16.6978854,1.27656382 C17.0398862,1.45595441 17.313024,1.7238455 17.495928,2.05927681 C17.692898,2.42050395 17.7698351,2.80174183 17.7773364,3.35797964 L17.7773364,3.35797964 L17.7779084,3.98761651 C17.7779084,4.59426735 17.7037067,4.99502528 17.495928,5.3760747 C17.313024,5.71150597 17.0398862,5.97939705 16.6978855,6.15878767 C16.3295836,6.35197406 15.9408791,6.42743328 15.3737473,6.43479051 L15.3737473,6.43479051 L15.2822341,6.4353515 L9.71776591,6.4353515 C9.0992337,6.4353515 8.69062686,6.36257513 8.30211452,6.15878766 C7.96011376,5.97939705 7.686976,5.71150597 7.50407198,5.37607469 C7.30710199,5.01484755 7.23016489,4.63360967 7.22266357,4.07737186 L7.22266357,4.07737186 L7.22209159,3.447735 C7.22209159,2.84108415 7.2962933,2.44032622 7.504072,2.05927677 C7.68697602,1.7238455 7.9601138,1.45595441 8.30211453,1.27656384 C8.67041637,1.08337745 9.05912086,1.00791822 9.62625268,1.00056099 L9.62625268,1.00056099 Z M15.2822341,2.55294153 L9.72285555,2.55294153 L9.64183863,2.55343427 L9.51913161,2.55649287 C9.27251569,2.56605413 9.14631734,2.59484765 9.04883118,2.64598234 C8.98276236,2.68063759 8.93564477,2.7268501 8.90031076,2.79164983 C8.85196031,2.88032069 8.82278429,2.99478157 8.81121819,3.20415878 L8.81121819,3.20415878 L8.80689539,3.3170771 C8.80593879,3.35756647 8.80544775,3.40101242 8.80544775,3.447735 L8.80595014,4.0620853 L8.80906865,4.18243525 C8.81881716,4.42431393 8.84817461,4.54808814 8.90031076,4.64370165 C8.93564477,4.7085014 8.98276236,4.75471391 9.04883121,4.78936919 C9.1392387,4.83679088 9.25594131,4.86540645 9.46941921,4.87675038 L9.46941921,4.87675038 L9.58454906,4.88099015 L9.71776591,4.88240998 L15.2771444,4.88240998 L15.3581614,4.88191723 L15.4808684,4.87885863 C15.7274843,4.86929738 15.8536827,4.84050386 15.9511688,4.78936919 C16.0172376,4.75471391 16.0643552,4.7085014 16.0996892,4.64370166 C16.1480397,4.5550308 16.1772157,4.44056993 16.1887818,4.23119272 L16.1887818,4.23119272 L16.1931046,4.1182744 L16.1945522,3.98761651 L16.1940499,3.3732662 L16.1909313,3.25291625 C16.1811828,3.01103756 16.1518254,2.88726336 16.0996893,2.79164987 C16.0643552,2.7268501 16.0172376,2.68063759 15.9511688,2.64598232 C15.8607613,2.59856062 15.7440587,2.56994505 15.5305808,2.55860112 L15.5305808,2.55860112 L15.4154509,2.55436136 C15.3741686,2.55342313 15.3298717,2.55294153 15.2822341,2.55294153 L15.2822341,2.55294153 Z" id="形状结合" fill="#182431"></path>
    </g>
</svg>