<?xml version="1.0" encoding="UTF-8"?>
<svg width="24px" height="24px" viewBox="0 0 24 24" version="1.1" xmlns="http://www.w3.org/2000/svg" xmlns:xlink="http://www.w3.org/1999/xlink">
    <title>星闪</title>
    <g id="星闪" stroke="none" stroke-width="1" fill="none" fill-rule="evenodd">
        <path d="M12.7148468,8.0311234 L13.7856669,6.93814516 L13.8764557,7.0264658 L14.1603482,7.31903158 C14.2340439,7.39987608 14.303611,7.48050239 14.3633643,7.55423862 L14.4449232,7.65884141 C15.4535663,8.87851167 16,10.4011996 16,12.0006332 C16,13.7083306 15.3785377,15.3228701 14.2461537,16.5739852 L14.04104,16.7909426 L9.39772457,21.4938225 C8.76681408,22.1313113 7.76737494,22.1667507 7.09495218,21.5995797 L6.97982554,21.4932351 L6.81304987,21.3243361 C4.35517672,18.8349906 3,15.5213481 3,12.0006332 C3,8.60146164 4.26335896,5.39511675 6.56275172,2.93743939 L6.81306929,2.67700693 L6.98076092,2.50718033 C7.61109556,1.86882056 8.61076601,1.83301878 9.28252558,2.40001883 L9.39752555,2.50633517 L11.1058516,4.23402451 L11.3116546,4.43563998 L10.2379081,5.5260903 C10.131319,5.42263979 10.0667146,5.35947661 10.0440952,5.33660076 C9.66180271,4.94997514 9.08836402,4.37003672 8.3237791,3.59678549 C8.26441258,3.53674608 8.17563416,3.52476509 8.10452906,3.56082606 L8.05524969,3.5968794 L7.88757748,3.76668634 C5.71499489,5.9670882 4.52009078,8.88883631 4.52009078,12.0006332 C4.52009078,14.9973174 5.62809143,17.8175598 7.65019302,19.9872249 L7.88755807,20.2346567 L8.05367582,20.4028901 C8.11350202,20.4633344 8.20305041,20.4754213 8.27443678,20.4394829 L8.32382297,20.4035295 L12.9664952,15.7013004 C13.9434774,14.7117676 14.4799092,13.4000259 14.4799092,12.0006332 C14.4799092,10.8514889 14.1171463,9.75853496 13.4242998,8.83215686 L13.2585676,8.62138451 C13.1948499,8.53690644 13.1238249,8.45218805 13.0437983,8.36439854 L12.8174488,8.13171195 L12.7148468,8.0311234 Z" id="路径" fill="#000000" fill-rule="nonzero"></path>
        <path d="M11.9804723,2.50613999 C12.6114126,1.86865787 13.610835,1.83326136 14.2832406,2.40048782 L14.3983642,2.50684232 L16.2639741,4.39649657 L19.4449232,7.65786038 C20.4535663,8.87761407 21,10.4004061 21,11.9999492 C21,13.7077634 20.3785377,15.3224133 19.2461537,16.573614 L18.8726594,16.9692947 L18.778632,17.058957 L17.704092,15.9692354 L17.910812,15.7581708 C17.9300764,15.7380602 17.9484956,15.7191012 17.9664952,15.7008695 C18.9434774,14.711269 19.4799092,13.3994376 19.4799092,11.9999492 C19.4799092,10.7623245 19.0591901,9.58987181 18.3219944,8.69432123 L15.1866507,5.48338431 L13.32448,3.59722749 C13.2646504,3.53677282 13.1750937,3.52468035 13.103703,3.56061603 L13.0543143,3.59656785 L12.8875775,3.76543905 C10.7149949,5.96599144 9.52009078,8.88793941 9.52009078,11.9999492 C9.52009078,14.9968384 10.6280914,17.8172736 12.650193,19.9870872 L12.8875581,20.2345359 L13.0536758,20.4027809 C13.113502,20.4632292 13.2030504,20.475317 13.2744368,20.4393761 L13.323823,20.4034203 L15.0542974,18.6506996 L15.2257652,18.4815288 L16.299886,19.5716749 C16.2107339,19.6589723 16.1550804,19.7138408 16.1329254,19.7362806 C15.7473252,20.1268377 15.168925,20.7126735 14.3977246,21.4937879 C13.7668141,22.1313203 12.7673749,22.1667621 12.0949522,21.5995523 L11.9798255,21.4932004 L11.8130499,21.3242899 C9.35517672,18.8347741 8,15.520905 8,11.9999492 C8,8.60054509 9.26335896,5.39398086 11.5627517,2.93613538 L11.8130693,2.67568511 L11.9804723,2.50613999 Z" id="路径" fill="#000000" fill-rule="nonzero" transform="translate(14.500000, 12.000000) scale(-1, 1) translate(-14.500000, -12.000000) "></path>
    </g>
</svg>