<?xml version="1.0" standalone="no"?>
<svg xmlns="http://www.w3.org/2000/svg" width="24" height="24"><rect width="24" height="24" opacity="0"></rect><g><path d="M17.18 16.1Q16.37 16.1 15.65 16.56L13.06 13.92L16.7 10.27Q16.92 10.06 16.92 9.74Q16.92 9.43 16.7 9.22Q16.49 9 16.18 9Q15.86 9 15.65 9.22L12 12.86L8.33 9.22Q8.11 9 7.8 9Q7.49 9 7.27 9.22Q7.06 9.43 7.06 9.74Q7.06 10.06 7.27 10.27L10.92 13.92L8.3 16.54Q7.63 16.13 6.82 16.13Q6 16.13 5.3 16.52Q4.61 16.92 4.21 17.62Q3.82 18.31 3.82 19.13Q3.82 19.94 4.21 20.63Q4.61 21.31 5.3 21.72Q6 22.13 6.82 22.13Q7.63 22.13 8.32 21.72Q9 21.31 9.41 20.63Q9.82 19.94 9.82 19.13Q9.82 18.72 9.71 18.34Q9.6 17.95 9.38 17.59L12 15L14.54 17.54Q14.18 18.17 14.18 19.1Q14.18 19.92 14.59 20.6Q15 21.29 15.68 21.7Q16.37 22.1 17.18 22.1Q18 22.1 18.68 21.7Q19.37 21.29 19.78 20.6Q20.18 19.92 20.18 19.1Q20.18 18.29 19.78 17.6Q19.37 16.92 18.68 16.51Q18 16.1 17.18 16.1ZM6.82 20.62Q6.19 20.62 5.75 20.17Q5.3 19.73 5.3 19.1Q5.3 18.48 5.75 18.05Q6.19 17.62 6.82 17.62Q7.44 17.62 7.87 18.05Q8.3 18.48 8.3 19.1Q8.3 19.73 7.87 20.17Q7.44 20.62 6.82 20.62ZM17.18 20.62Q16.56 20.62 16.13 20.17Q15.7 19.73 15.7 19.1Q15.7 18.48 16.14 18.05Q16.58 17.62 17.18 17.62Q17.81 17.62 18.25 18.05Q18.7 18.48 18.7 19.1Q18.7 19.73 18.25 20.17Q17.81 20.62 17.18 20.62Z" fill="rgba(0,0,0,0.9019607843137255)"></path><path d="M19.2 14.69Q19.97 14.69 20.6 14.32Q21.24 13.94 21.62 13.3Q22.01 12.65 22.01 11.88L22.01 4.68Q22.01 3.91 21.64 3.28Q21.26 2.64 20.62 2.26Q19.97 1.87 19.2 1.87L4.8 1.87Q4.03 1.87 3.38 2.26Q2.74 2.64 2.36 3.28Q1.99 3.91 1.99 4.68L1.99 11.88Q1.99 12.65 2.36 13.3Q2.74 13.94 3.38 14.32Q4.03 14.69 4.8 14.69L5.83 14.69Q6.14 14.69 6.36 14.47Q6.58 14.26 6.58 13.94Q6.58 13.63 6.36 13.42Q6.14 13.2 5.83 13.2L4.8 13.2Q4.27 13.2 3.89 12.82Q3.5 12.43 3.5 11.88L3.5 4.68Q3.5 4.13 3.89 3.76Q4.27 3.38 4.8 3.38L19.2 3.38Q19.75 3.38 20.12 3.76Q20.5 4.13 20.5 4.68L20.5 11.88Q20.5 12.43 20.11 12.82Q19.73 13.2 19.2 13.2L18.17 13.2Q17.86 13.2 17.63 13.42Q17.4 13.63 17.4 13.94Q17.4 14.26 17.63 14.47Q17.86 14.69 18.17 14.69L19.2 14.69Z" fill="rgba(0,0,0,0.9019607843137255)"></path></g></svg>