<?xml version="1.0" encoding="UTF-8"?>
<svg width="24px" height="24px" viewBox="0 0 24 24" version="1.1" xmlns="http://www.w3.org/2000/svg" xmlns:xlink="http://www.w3.org/1999/xlink">
    <title>已安装应用列表</title>
    <g id="已安装应用列表" stroke="none" stroke-width="1" fill="none" fill-rule="evenodd">
        <rect id="矩形" x="0" y="0" width="24" height="24" opacity="0"></rect>
        <path d="M17.75,2 C19.7542592,2 21.3912737,3.57236105 21.494802,5.55084143 L21.5,5.75 L21.5,17.75 C21.5,19.8046174 19.8476332,21.4733039 17.7992762,21.4996829 L5.75,21.5 C3.74574083,21.5 2.10872626,19.9276389 2.00519801,17.9491586 L2,17.75 L2,5.75 C2,3.74574083 3.57236105,2.10872626 5.55084143,2.00519801 L5.75,2 L17.75,2 Z M17.75,3.5 L5.75,3.5 C4.55913601,3.5 3.58435508,4.42516159 3.50519081,5.59595119 L3.5,5.75 L3.5,17.75 C3.5,18.9926407 4.50735931,20 5.75,20 L17.75,20 C18.940864,20 19.9156449,19.0748384 19.9948092,17.9040488 L20,17.75 L20,5.75 C20,4.55913601 19.0748384,3.58435508 17.9040488,3.50519081 L17.75,3.5 Z M8,15 C8.55228475,15 9,15.4477153 9,16 C9,16.5522847 8.55228475,17 8,17 C7.44771525,17 7,16.5522847 7,16 C7,15.4477153 7.44771525,15 8,15 Z M16.25,15.25 C16.6642136,15.25 17,15.5857864 17,16 C17,16.4142136 16.6642136,16.75 16.25,16.75 L11.25,16.75 C10.8357864,16.75 10.5,16.4142136 10.5,16 C10.5,15.5857864 10.8357864,15.25 11.25,15.25 L16.25,15.25 Z M8,11 C8.55228475,11 9,11.4477153 9,12 C9,12.5522847 8.55228475,13 8,13 C7.44771525,13 7,12.5522847 7,12 C7,11.4477153 7.44771525,11 8,11 Z M16.25,11.25 C16.6642136,11.25 17,11.5857864 17,12 C17,12.4142136 16.6642136,12.75 16.25,12.75 L11.25,12.75 C10.8357864,12.75 10.5,12.4142136 10.5,12 C10.5,11.5857864 10.8357864,11.25 11.25,11.25 L16.25,11.25 Z M8,7 C8.55228475,7 9,7.44771525 9,8 C9,8.55228475 8.55228475,9 8,9 C7.44771525,9 7,8.55228475 7,8 C7,7.44771525 7.44771525,7 8,7 Z M16.25,7.25 C16.6642136,7.25 17,7.58578644 17,8 C17,8.41421356 16.6642136,8.75 16.25,8.75 L11.25,8.75 C10.8357864,8.75 10.5,8.41421356 10.5,8 C10.5,7.58578644 10.8357864,7.25 11.25,7.25 L16.25,7.25 Z" id="形状结合" fill="#99000000"></path>
    </g>
</svg>